<svg xmlns="http://www.w3.org/2000/svg" height="100" width="300" id="svg20" version="1.1" viewBox="-76.3875 -25.59 662.025 153.54"><defs id="defs14"><style id="style12"/></defs><g transform="translate(-39.87 -50.56)" id="g18"><path id="path16" d="M63 101.74L51.43 113.3l-11.56-11.56 11.56-11.56zm28.05-28.07l19.81 19.82 11.56-11.56-31.37-31.37-31.37 31.37 11.56 11.56zm39.63 16.51l-11.56 11.56 11.56 11.56 11.55-11.56zm-39.63 39.63L71.24 110l-11.56 11.55 31.37 31.37 31.37-31.37L110.86 110zm0-16.51l11.56-11.56-11.56-11.56-11.56 11.56zm122 1.11v-.16c0-7.54-4-11.31-10.51-13.79 4-2.25 7.38-5.78 7.38-12.11v-.16c0-8.82-7.06-14.52-18.53-14.52h-26.04v56.14h26.7c12.67 0 21.02-5.13 21.02-15.4zm-15.4-24c0 4.17-3.45 5.94-8.9 5.94h-11.37V84.5h12.19c5.21 0 8.1 2.08 8.1 5.77zm3.13 22.46c0 4.17-3.29 6.09-8.75 6.09h-14.65v-12.33h14.27c6.34 0 9.15 2.33 9.15 6.1zM239 129.81V73.67h-12.39v56.14zm66.39 0V73.67h-12.23v34.57l-26.3-34.57h-11.39v56.14h12.19V94.12l27.18 35.69zm68.41 0l-24.1-56.54h-11.39l-24.05 56.54h12.59l5.15-12.59h23.74l5.13 12.59zm-22.45-23.5h-14.96l7.46-18.2zm81.32 23.5V73.67h-12.23v34.57l-26.31-34.57h-11.38v56.14h12.18V94.12l27.19 35.69zm63.75-9.06l-7.85-7.94c-4.41 4-8.34 6.57-14.76 6.57-9.62 0-16.28-8-16.28-17.64v-.16c0-9.62 6.82-17.48 16.28-17.48 5.61 0 10 2.4 14.36 6.33l7.83-9.06c-5.21-5.13-11.54-8.66-22.13-8.66-17.24 0-29.27 13.07-29.27 29v.16c0 16.12 12.27 28.87 28.79 28.87 10.81.03 17.22-3.82 22.99-9.99zm52.7 9.06v-11H518.6V107h26.47V96H518.6V84.66h30.08v-11h-42.35v56.14z" fill="#f0b90b"/></g></svg>