<svg id="flat" height="512" viewBox="0 0 512 512" width="512" xmlns="http://www.w3.org/2000/svg"><path d="m112.16 360h191.68a32.16 32.16 0 0 1 32.16 32.16v95.84a0 0 0 0 1 0 0h-256a0 0 0 0 1 0 0v-95.84a32.16 32.16 0 0 1 32.16-32.16z" fill="#4895aa"/><path d="m303.84 360h-16a32.159 32.159 0 0 1 32.16 32.16v95.84h16v-95.84a32.159 32.159 0 0 0 -32.16-32.16z" fill="#2a6377"/><g fill="#da8583"><path d="m296 168v104.171a55.83 55.83 0 0 1 -55.829 55.829h-64.342a55.83 55.83 0 0 1 -55.829-55.829v-104.171z"/><path d="m95.689 184h34.311a0 0 0 0 1 0 0v48a0 0 0 0 1 0 0h-34.311a7.689 7.689 0 0 1 -7.689-7.689v-32.622a7.689 7.689 0 0 1 7.689-7.689z"/><path d="m286 184h34.311a7.689 7.689 0 0 1 7.689 7.689v32.623a7.689 7.689 0 0 1 -7.689 7.688h-34.311a0 0 0 0 1 0 0v-48a0 0 0 0 1 0 0z"/></g><path d="m168 224a24.027 24.027 0 0 1 -24-24h16a8 8 0 0 0 16 0h16a24.027 24.027 0 0 1 -24 24z" fill="#133442"/><path d="m248 224a24.027 24.027 0 0 1 -24-24h16a8 8 0 0 0 16 0h16a24.027 24.027 0 0 1 -24 24z" fill="#133442"/><path d="m208 24a112 112 0 0 1 112 112v24a0 0 0 0 1 0 0h-224a0 0 0 0 1 0 0v-24a112 112 0 0 1 112-112z" fill="#eb9840"/><path d="m220 24.641a113.239 113.239 0 0 0 -12-.641 112 112 0 0 0 -112 112v24h24v-24a112.011 112.011 0 0 1 100-111.359z" fill="#ecb347"/><path d="m176 120-.093-96h64.203l-.11 96z" fill="#ecb347"/><path d="m232 360a33.941 33.941 0 0 1 -48 0v-32h48z" fill="#da8583"/><path d="m97.143 120a112.875 112.875 0 0 0 -1.143 16v24h224v-24a112.875 112.875 0 0 0 -1.143-16z" fill="#2a6377"/><path d="m264 264a95.263 95.263 0 0 0 -52.844-16h-6.312a95.263 95.263 0 0 0 -52.844 16l-32-24v32.171a55.83 55.83 0 0 0 55.829 55.829h64.342a55.83 55.83 0 0 0 55.829-55.829v-32.171z" fill="#133442"/><path d="m336 184h-256l16-32h224z" fill="#ecb347"/><path d="m80 440h48v48h-48z" fill="#da8583"/><circle cx="208" cy="104" fill="#d1e3ee" r="48"/><path d="m288 440h48v48h-48z" fill="#da8583"/><path d="m80 424h48v32h-48z" fill="#931b46"/><path d="m216 488 136-136 24 24-112 112z" fill="#133442"/><path d="m340.308 340.308 47.384 47.384a244.921 244.921 0 0 0 26.233 22.752l18.075 13.556a151.847 151.847 0 0 0 -42.409-82.409l-3.182-3.182a151.847 151.847 0 0 0 -82.409-42.409l13.556 18.075a244.921 244.921 0 0 0 22.752 26.233z" fill="#4895aa"/><circle cx="208" cy="104" fill="#8cb9dd" r="16"/></svg>