<svg height="512" viewBox="0 0 58 58" width="512" xmlns="http://www.w3.org/2000/svg"><g id="Page-1" fill="none" fill-rule="evenodd"><g id="043---Mining-Game" fill-rule="nonzero" transform="translate(-1)"><path id="Shape" d="m33.773 7.71s14.7 7.354 13.968 18.813c.0144245.3972155-.2156837.7627996-.5800681.9215829-.3643845.1587833-.7888174.0784204-1.0699319-.2025829-4.3712274-5.1972853-9.789033-9.4146552-15.9-12.377l-8.941-4.473c-6.0352589-3.11087257-12.65868796-4.91410266-19.438-5.292-.39612526-.05479936-.71765559-.3477766-.80895145-.73711355s.06647867-.79470667.39695145-1.01988645c8.729-7.46 23.431-.106 23.431-.106z" fill="#7f8c8d"/><path id="Shape" d="m32.432 1.449-1.789-.894c-.9877733-.49384917-2.1888699-.09363286-2.683.894l-.895 1.788 2.46 3.231 2.906-.547.9-1.788c.2371185-.47506663.2756013-1.02492345.1069671-1.52838745-.1686342-.50346399-.5305436-.91921031-1.0059671-1.15561255z" fill="#a56a43"/><path id="Shape" d="m8.024 48.012c-1.48173881-.7412018-2.08211178-2.5432161-1.341-4.025l15.909-31.806 3.408-.045 1.958 2.729-15.909 31.806c-.7412018 1.4817388-2.54321615 2.0821118-4.025 1.341z" fill="#a56a43"/><path id="Shape" d="m59 57v-47c-1.8487771.6925613-3.3074387 2.1512229-4 4 0 0-3 0-4 2 2.4438649 4.2721174 2.8118495 9.423903 1 14 0 0 3 5-2 8 0 0-2 7-10 2-4.9456311.2010003-9.2849891 3.356897-11 8 0 0-5-2-7 3 0 0-9-1-11 7h47c.5522847 0 1-.4477153 1-1z" fill="#547580"/><rect id="Rectangle-path" fill="#f0c419" height="4" rx="1" transform="matrix(.953 .301 -.301 .953 17.35 -12.444)" width="4" x="47.001" y="48"/><rect id="Rectangle-path" fill="#f0c419" height="4" rx="1" transform="matrix(-.953 .301 -.301 -.953 84.927 90.385)" width="4" x="33.49" y="49.745"/><g fill="#3f5c6c"><path id="Shape" d="m42 48c-.5522847 0-1-.4477153-1-1v-1c0-.5522847.4477153-1 1-1s1 .4477153 1 1v1c0 .5522847-.4477153 1-1 1z"/><path id="Shape" d="m25 55c-.4043959-.0000863-.7689341-.2437275-.923678-.6173454-.1547439-.373618-.0692299-.8036603.216678-1.0896546l1-1c.3923789-.3789722 1.0160848-.3735524 1.4018186.0121814s.3911536 1.0094397.0121814 1.4018186l-1 1c-.1874927.1875494-.4418052.2929434-.707.293z"/><path id="Shape" d="m55 44c-.2651948-.0000566-.5195073-.1054506-.707-.293l-1-1c-.3789722-.3923789-.3735524-1.0160848.0121814-1.4018186s1.0094397-.3911536 1.4018186-.0121814l1 1c.2859079.2859943.3714219.7160366.216678 1.0896546-.1547439.3736179-.5192821.6172591-.923678.6173454z"/></g><path id="Shape" d="m39 30.816c-1-1.969-5 0-5 1.969s1 3.938 4 2.953 2-2.953 1-4.922z" fill="#f0c419"/><rect id="Rectangle-path" fill="#95a5a5" height="10" rx="1" transform="matrix(.894 .447 -.447 .894 6.955 -11.351)" width="10" x="22.512" y="4.051"/></g></g></svg>